PathFileType  4	(X/Y/Z) H:\Shared drives\HIT\Data\HapticPilot\Subject1\Edited\Files_W_HJCs
DataRate	CameraRate	NumFrames	NumMarkers	Units	OrigDataRate	OrigDataStartFrame	OrigNumFrames
   50.0		   50.0		    6		     56		 mm	   50.0	      1	    227
Frame#	Time	r_knee			r_shank_antsup			r_ankle			r_calc			r_5meta			r_toe			L_knee			L_shank_antsup			L_ankle			L_calc			L_5meta			L_toe			r_mknee			r_mankle			L_mknee			L_mankle			r_sh2			r_sh3			r_sh4			L_sh2			L_sh3			r_thigh1			r_thigh2			r_thigh3			r_thigh4			r_thigh5			L_thigh1			L_thigh2			L_thigh3			L_thigh4			r.ASIS			r.PSIS			L.ASIS			L.PSIS			C7			R_Shoulder			L_Shoulder			Sternum			R_HJC			L_HJC			R_HJC_reg			L_HJC_reg			midPSIS			midASIS			midHJC			midPelvis			R_KJC			L_KJC			R_AJC			L_AJC			R_AJC_proj			R_5meta_proj			R_toe_proj			L_AJC_proj			L_5meta_proj			L_toe_proj			
		X1	Y1	Z1	X2	Y2	Z2	X3	Y3	Z3	X4	Y4	Z4	X5	Y5	Z5	X6	Y6	Z6	X7	Y7	Z7	X8	Y8	Z8	X9	Y9	Z9	X10	Y10	Z10	X11	Y11	Z11	X12	Y12	Z12	X13	Y13	Z13	X14	Y14	Z14	X15	Y15	Z15	X16	Y16	Z16	X17	Y17	Z17	X18	Y18	Z18	X19	Y19	Z19	X20	Y20	Z20	X21	Y21	Z21	X22	Y22	Z22	X23	Y23	Z23	X24	Y24	Z24	X25	Y25	Z25	X26	Y26	Z26	X27	Y27	Z27	X28	Y28	Z28	X29	Y29	Z29	X30	Y30	Z30	X31	Y31	Z31	X32	Y32	Z32	X33	Y33	Z33	X34	Y34	Z34	X35	Y35	Z35	X36	Y36	Z36	X37	Y37	Z37	X38	Y38	Z38	X39	Y39	Z39	X40	Y40	Z40	X41	Y41	Z41	X42	Y42	Z42	X43	Y43	Z43	X44	Y44	Z44	X45	Y45	Z45	X46	Y46	Z46	X47	Y47	Z47	X48	Y48	Z48	X49	Y49	Z49	X50	Y50	Z50	X51	Y51	Z51	X52	Y52	Z52	X53	Y53	Z53	X54	Y54	Z54	X55	Y55	Z55	X56	Y56	Z56	

1	0.00000	771.872	578.979	-408.097	786.400	491.748	-403.522	734.905	114.083	-408.863	646.319	71.195	-451.939	847.102	39.405	-382.276	885.954	73.739	-445.035	765.190	573.924	-731.641	790.398	456.439	-733.128	705.185	113.322	-732.189	629.642	73.458	-681.363	820.986	42.542	-777.791	868.048	71.144	-721.349	769.362	558.356	-534.034	746.765	120.737	-504.972	783.087	563.137	-609.447	736.667	120.731	-642.299	783.399	371.616	-400.544	711.453	491.343	-391.359	701.328	375.449	-385.027	702.784	476.258	-751.796	690.947	354.270	-753.390	839.603	898.880	-391.616	839.338	783.959	-395.075	793.221	750.548	-382.641	726.610	892.772	-379.840	732.057	775.750	-392.278	852.927	840.491	-751.365	854.467	702.360	-742.826	737.598	839.096	-770.031	741.800	704.023	-750.994	861.918	1095.240	-445.153	672.822	1126.392	-537.904	871.101	1096.699	-703.283	681.171	1125.464	-620.472	716.440	1608.186	-584.910	760.718	1582.867	-419.736	784.541	1577.086	-761.173	859.830	1537.572	-577.355	793.516	1006.295	-457.414	800.859	1007.848	-693.659	788.095	1018.700	-488.262	805.244	1016.794	-657.863	676.996	1125.928	-579.188	866.510	1095.970	-574.218	797.188	1007.072	-575.537	771.753	1110.949	-576.703	770.617	568.668	-471.066	774.138	568.530	-670.544	740.835	117.410	-456.917	720.926	117.026	-687.244	740.835	0.000	-456.917	847.102	0.000	-382.276	885.954	0.000	-445.035	720.926	0.000	-687.244	820.986	0.000	-777.791	868.048	0.000	-721.349
2	0.02000	771.928	578.963	-408.202	786.443	491.773	-403.569	734.913	114.127	-408.845	646.344	71.163	-451.966	847.123	39.406	-382.296	885.993	73.715	-445.063	765.287	573.874	-731.683	790.421	456.393	-733.139	705.197	113.337	-732.195	629.650	73.410	-681.377	820.987	42.544	-777.818	868.021	71.116	-721.396	769.401	558.363	-534.093	746.758	120.772	-504.999	783.057	563.150	-609.470	736.600	120.672	-642.319	783.474	371.608	-400.657	711.511	491.379	-391.385	701.336	375.464	-385.080	702.856	476.256	-751.874	691.114	354.339	-753.416	839.688	898.913	-391.695	839.295	783.916	-395.165	793.222	750.547	-382.711	726.686	892.775	-379.882	732.076	775.756	-392.339	853.104	840.472	-751.376	854.658	702.333	-742.755	737.853	839.300	-770.030	741.962	704.105	-751.115	862.029	1095.237	-445.240	672.946	1126.385	-537.984	871.625	1097.056	-703.381	681.397	1125.453	-620.605	716.449	1608.181	-585.067	760.812	1582.839	-419.854	784.718	1577.146	-761.360	859.948	1537.642	-577.509	793.767	1006.246	-457.632	801.326	1008.118	-693.868	788.289	1018.871	-488.436	805.637	1016.958	-658.035	677.172	1125.919	-579.295	866.827	1096.147	-574.311	797.547	1007.182	-575.750	771.999	1111.033	-576.803	770.665	568.663	-471.148	774.172	568.512	-670.577	740.836	117.450	-456.922	720.898	117.005	-687.257	740.836	0.000	-456.922	847.123	0.000	-382.296	885.993	0.000	-445.063	720.898	0.000	-687.257	820.987	0.000	-777.818	868.021	0.000	-721.396
3	0.04000	772.003	578.963	-408.253	786.502	491.768	-403.660	734.916	114.116	-408.887	646.401	71.109	-452.019	847.089	39.406	-382.308	886.011	73.697	-445.077	765.458	573.870	-731.767	790.493	456.400	-733.198	705.259	113.279	-732.215	629.641	73.350	-681.404	820.988	42.495	-777.855	868.056	71.085	-721.408	769.531	558.344	-534.173	746.812	120.759	-505.016	783.057	563.094	-609.528	736.641	120.638	-642.385	783.495	371.604	-400.683	711.560	491.391	-391.506	701.372	375.516	-385.091	702.880	476.243	-751.959	691.057	354.243	-753.439	839.768	898.853	-391.748	839.229	783.981	-395.196	793.332	750.543	-382.739	726.779	892.773	-379.996	732.176	775.748	-392.381	853.267	840.457	-751.407	854.816	702.321	-742.745	738.009	839.305	-770.116	742.740	704.472	-751.354	862.120	1095.220	-445.328	673.058	1126.374	-538.080	871.781	1097.012	-703.450	681.581	1125.396	-620.717	716.539	1608.094	-585.260	760.962	1582.849	-419.990	784.929	1577.149	-761.538	860.066	1537.746	-577.683	793.876	1006.229	-457.704	801.486	1008.070	-693.939	788.328	1018.909	-488.545	805.819	1016.902	-658.118	677.320	1125.885	-579.399	866.951	1096.116	-574.389	797.681	1007.150	-575.822	772.135	1111.001	-576.894	770.767	568.654	-471.213	774.257	568.482	-670.647	740.864	117.438	-456.951	720.950	116.959	-687.300	740.864	0.000	-456.951	847.089	0.000	-382.308	886.011	0.000	-445.077	720.950	0.000	-687.300	820.988	0.000	-777.855	868.056	0.000	-721.408
4	0.06000	772.121	578.958	-408.351	786.607	491.789	-403.703	734.938	114.115	-408.896	646.391	71.130	-452.056	847.098	39.378	-382.324	886.012	73.693	-445.065	765.484	573.834	-731.787	790.509	456.363	-733.251	705.198	113.284	-732.223	629.657	73.366	-681.386	820.987	42.483	-777.852	868.042	71.091	-721.439	769.600	558.348	-534.253	746.818	120.779	-505.043	783.069	563.134	-609.604	736.603	120.673	-642.311	783.555	371.624	-400.748	711.687	491.397	-391.619	701.504	375.524	-385.154	702.892	476.239	-751.954	691.144	354.245	-753.540	839.885	898.871	-391.842	839.465	783.985	-395.321	793.521	750.580	-382.859	726.921	892.811	-380.085	732.297	775.757	-392.459	853.262	840.472	-751.494	854.872	702.296	-742.814	738.027	839.063	-770.360	742.216	704.142	-751.308	862.264	1095.258	-445.429	673.225	1126.348	-538.169	871.838	1096.962	-703.610	681.695	1125.381	-620.773	716.610	1608.024	-585.408	761.086	1582.856	-420.140	785.059	1577.221	-761.690	860.190	1537.834	-577.844	794.043	1006.253	-457.782	801.568	1008.023	-694.020	788.510	1018.853	-488.616	805.902	1016.867	-658.235	677.460	1125.864	-579.471	867.051	1096.110	-574.519	797.806	1007.138	-575.901	772.255	1110.987	-576.995	770.861	568.653	-471.302	774.276	568.484	-670.695	740.878	117.447	-456.970	720.900	116.979	-687.267	740.878	0.000	-456.970	847.098	0.000	-382.324	886.012	0.000	-445.065	720.900	0.000	-687.267	820.987	0.000	-777.852	868.042	0.000	-721.439
5	0.08000	772.264	578.959	-408.420	786.700	491.782	-403.747	734.947	114.110	-408.914	646.404	71.144	-451.997	847.094	39.415	-382.304	886.005	73.694	-445.064	765.520	573.831	-731.827	790.487	456.327	-733.294	705.238	113.285	-732.195	629.626	73.375	-681.389	821.003	42.497	-777.823	868.047	71.073	-721.394	769.649	558.330	-534.330	746.796	120.774	-505.047	783.181	563.131	-609.660	736.649	120.703	-642.332	783.625	371.624	-400.764	711.746	491.428	-391.656	701.572	375.544	-385.184	702.892	476.208	-751.976	691.186	354.163	-753.540	840.007	898.830	-391.983	839.516	783.947	-395.410	793.594	750.574	-382.970	727.006	892.758	-380.192	732.420	775.760	-392.514	853.239	840.466	-751.629	854.875	702.270	-742.898	737.986	838.986	-770.472	742.211	704.028	-751.273	862.418	1095.218	-445.623	673.261	1126.354	-538.261	871.875	1096.939	-703.747	681.683	1125.383	-620.950	716.613	1608.018	-585.591	761.266	1582.871	-420.288	785.110	1577.263	-761.830	860.346	1537.927	-578.067	794.123	1006.232	-457.943	801.573	1008.011	-694.184	788.633	1018.860	-488.749	805.905	1016.867	-658.340	677.472	1125.868	-579.606	867.147	1096.078	-574.685	797.848	1007.121	-576.063	772.309	1110.973	-577.145	770.956	568.645	-471.375	774.351	568.481	-670.744	740.872	117.442	-456.981	720.943	116.994	-687.264	740.872	0.000	-456.981	847.094	0.000	-382.304	886.005	0.000	-445.064	720.943	0.000	-687.264	821.003	0.000	-777.823	868.047	0.000	-721.394
6	0.10000	772.393	578.970	-408.454	786.778	491.792	-403.868	734.955	114.149	-408.908	646.377	71.227	-451.976	847.087	39.393	-382.292	886.012	73.715	-445.076	765.494	573.915	-731.891	790.526	456.321	-733.334	705.191	113.344	-732.223	629.634	73.396	-681.347	820.988	42.556	-777.823	868.046	71.124	-721.371	769.764	558.309	-534.403	746.812	120.789	-505.062	783.186	563.087	-609.715	736.680	120.700	-642.318	783.718	371.644	-400.823	711.894	491.422	-391.712	701.718	375.571	-385.218	702.924	476.221	-752.017	691.187	354.244	-753.568	840.161	898.853	-392.089	839.620	783.925	-395.563	793.712	750.584	-383.015	727.190	892.733	-380.304	732.531	775.759	-392.560	853.218	840.437	-751.711	854.779	702.313	-743.077	737.925	839.004	-770.480	742.688	704.479	-751.495	862.473	1095.165	-445.825	673.392	1126.427	-538.319	871.866	1096.911	-703.920	681.708	1125.463	-620.952	716.697	1608.026	-585.681	761.418	1582.911	-420.417	785.293	1577.341	-761.983	860.441	1537.988	-578.212	794.173	1006.216	-458.081	801.490	1008.029	-694.326	788.713	1018.872	-488.864	805.781	1016.892	-658.455	677.550	1125.945	-579.636	867.170	1096.038	-574.873	797.831	1007.122	-576.203	772.360	1110.992	-577.254	771.078	568.639	-471.428	774.340	568.501	-670.803	740.884	117.469	-456.985	720.935	117.022	-687.270	740.884	0.000	-456.985	847.087	0.000	-382.292	886.012	0.000	-445.076	720.935	0.000	-687.270	820.988	0.000	-777.823	868.046	0.000	-721.371
